:SAMPLES-PER-SECOND 30
:FULLY-SPECIFIED
:DEGREES
1162
root  12.9841 39.5461 10.4724 -0.148743 58.3378 3.43506
RightUpLeg  -13.8278 2.60151 -10.3482
RightLeg  19.6468 4.04475 1.44087
RightFoot  -1.19243 -0.416681 4.59715
RightToes  0.000481921 0.542163 -0.142578
Spine  22.8928 -1.61418 -0.628002
Spine1  6.86309 -3.70922 6.93705
HEad  -4.35341 26.0675 -14.0544
LeftShoulder1  9.93743 -15.4122 -45.8103
LeftArm  -15.1716 29.4574 -27.2141
LeftForeArm  -171.932 -68.6421 -157.278
LeftHand  -0.25398 0.0180481 5.50724
RightShoulder  4.68266 9.49589 30.0573
RightArm  2.33776 14.554 34.1282
RightForeArm  -177.938 55.1513 166.565
RightHand  -0.324687 2.92359 -4.81078
LeftUpLeg  2.9844 43.0255 11.0502
LeftLeg  23.1285 14.408 7.16781
LeftFoot  -9.82711 0.173763 -8.66244
LeftToes  1.06245e-005 4.65869e-005 -8.65517e-006
1163
root  12.9607 39.355 10.3303 -0.543884 59.1326 4.35406
RightUpLeg  -13.6922 2.83755 -11.0438
RightLeg  21.9687 3.32564 1.26387
RightFoot  -2.17086 -0.396504 4.75695
RightToes  0.000481921 0.542163 -0.142578
Spine  23.284 -1.28926 -0.269291
Spine1  8.45857 -3.32487 6.61018
HEad  -5.13091 24.8184 -15.6503
LeftShoulder1  9.88612 -15.3256 -45.7817
LeftArm  -13.3585 32.3813 -27.418
LeftForeArm  -170.206 -66.3966 -159.765
LeftHand  -0.25398 0.0180481 5.50724
RightShoulder  4.98012 9.88602 31.2418
RightArm  2.89071 11.0873 31.6758
RightForeArm  -175.489 55.9882 166.345
RightHand  -0.203544 2.71288 -3.15196
LeftUpLeg  3.05336 41.373 10.8509
LeftLeg  25.2418 14.9949 7.90856
LeftFoot  -10.7112 0.110556 -8.41582
LeftToes  1.06245e-005 4.65869e-005 -8.65517e-006
1164
root  12.9871 39.3575 10.2482 0.00823975 61.7929 5.63116
RightUpLeg  -12.4164 1.17787 -12.0121
RightLeg  22.1662 2.72476 1.00679
RightFoot  -2.56785 -0.414168 5.16498
RightToes  0.000481921 0.542163 -0.142578
Spine  22.6689 -1.46754 0.0625597
Spine1  9.57862 -3.61723 6.95409
HEad  -4.12086 23.706 -17.8371
LeftShoulder1  9.61695 -14.8976 -45.564
LeftArm  -11.2782 30.9936 -27.4983
LeftForeArm  -164.818 -64.8792 -161.596
LeftHand  -0.25398 0.0180481 5.50724
RightShoulder  5.32603 10.1286 33.1279
RightArm  3.90266 5.88618 30.0551
RightForeArm  -174.13 55.3791 166.744
RightHand  -0.042067 2.05258 -0.866254
LeftUpLeg  3.04784 39.4682 9.97313
LeftLeg  25.0381 14.5072 7.61228
LeftFoot  -10.5967 0.11362 -7.78168
LeftToes  1.06245e-005 4.65869e-005 -8.65517e-006
1165
root  13.0269 39.5188 10.2247 2.14099 65.9221 7.63892
RightUpLeg  -10.6667 -1.87933 -13.1887
RightLeg  20.7454 1.96994 0.616775
RightFoot  -2.38254 -0.466352 5.73703
RightToes  0.000481921 0.542163 -0.142578
Spine  21.4132 -1.90386 0.0168142
Spine1  9.51967 -4.32669 7.86976
HEad  -1.91238 22.7736 -19.5204
LeftShoulder1  9.27144 -14.4071 -45.1137
LeftArm  -9.41546 26.746 -28.1005
LeftForeArm  -158.189 -63.3236 -163.357
LeftHand  -0.25398 0.0180481 5.50724
RightShoulder  5.54992 10.0541 34.9765
RightArm  5.09177 -1.27436 30.262
RightForeArm  -173.911 53.2459 167.741
RightHand  0.0368185 1.83414 0.386479
LeftUpLeg  2.35742 37.1862 8.34013
LeftLeg  23.3414 13.2366 6.51913
LeftFoot  -9.49639 0.169407 -7.01192
LeftToes  1.06245e-005 4.65869e-005 -8.65517e-006
1166
root  13.0363 39.7407 10.2454 6.146 70.734 11.0544
RightUpLeg  -8.84724 -5.41648 -14.3951
RightLeg  18.7295 0.795342 0.0702807
RightFoot  -1.822 -0.530582 6.21629
RightToes  0.000481921 0.542163 -0.142578
Spine  20.1052 -2.40182 -0.748762
Spine1  8.58756 -5.23648 9.16714
HEad  0.220363 22.074 -19.9834
LeftShoulder1  8.95877 -14.0822 -44.3666
LeftArm  -8.11266 21.1757 -29.1686
LeftForeArm  -153.962 -61.4929 -164.921
LeftHand  -0.25398 0.0180481 5.50724
RightShoulder  5.62564 9.86435 36.0978
RightArm  5.95204 -9.20943 32.894
RightForeArm  -174.296 50.471 168.873
RightHand  -0.0113978 2.89575 -0.399647
LeftUpLeg  1.30545 35.1377 6.56876
LeftLeg  21.1404 11.0419 5.00525
LeftFoot  -7.77995 0.242889 -6.31216
LeftToes  1.06245e-005 4.65869e-005 -8.65517e-006
